<svg version="1.1" viewBox="0 0 1024 1024" xmlns="http://www.w3.org/2000/svg"><path d="M691.2 120.83c58.37-58.37 153.6-58.37 211.97 0 56.32 56.32 58.37 145.92 6.65 204.8l-6.65 7.17-123.39 123.9 26.11 26.63c24.58 24.58 24.58 64 0 88.06-22.53 22.53-58.88 24.06-82.95 4.61l-5.12-4.61-26.62-26.62-349.7 349.69c-23.04 23.04-52.22 37.38-83.96 42.5l-10.76 1.02-116.22 9.22a50.07 50.07 0 0 1-53.76-48.13v-5.63l9.22-116.22c2.56-32.26 15.36-62.46 35.84-87.04l7.68-7.68 349.69-349.7-26.62-26.62c-24.58-24.58-24.58-64 0-88.07 22.53-22.53 58.88-24.06 83.45-4.61l4.61 4.61 26.63 26.11 123.9-123.39z m-176.64 268.8l-339.46 338.95c-4.1 4.1-8.19 8.7-11.26 13.82h238.08l232.45-232.96-119.81-119.81z" fill="#333333" p-id="0"></path></svg>